{
  "accessors": [
    {
      "bufferView": 2,
      "componentType": 5126,
      "count": 26758,
      "max": [
        0.07807324826717377,
        0.08945807069540024,
        0.12577015161514282
      ],
      "min": [
        -0.07807324826717377,
        -0.08945807069540024,
        -0.12577015161514282
      ],
      "type": "VEC3"
    },
    {
      "bufferView": 2,
      "byteOffset": 321096,
      "componentType": 5126,
      "count": 26758,
      "max": [
        0.9999939799308777,
        0.9999480843544006,
        0.9978346824645996
      ],
      "min": [
        -0.9997574090957642,
        -0.9999711513519287,
        -0.9998352527618408
      ],
      "type": "VEC3"
    },
    {
      "bufferView": 1,
      "componentType": 5126,
      "count": 26758,
      "max": [
        0.999995768070221,
        0.9628454446792603
      ],
      "min": [
        2.5322149213025114e-06,
        0.00011849237489514053
      ],
      "type": "VEC2"
    },
    {
      "bufferView": 1,
      "byteOffset": 214064,
      "componentType": 5126,
      "count": 26758,
      "max": [
        0.999995768070221,
        0.9628454446792603
      ],
      "min": [
        2.5322149213025114e-06,
        0.00011849237489514053
      ],
      "type": "VEC2"
    },
    {
      "bufferView": 1,
      "byteOffset": 428128,
      "componentType": 5126,
      "count": 26758,
      "max": [
        0.999995768070221,
        0.9628454446792603
      ],
      "min": [
        2.5322149213025114e-06,
        0.00011849237489514053
      ],
      "type": "VEC2"
    },
    {
      "bufferView": 0,
      "componentType": 5125,
      "count": 150000,
      "type": "SCALAR"
    }
  ],
  "asset": {
    "extras": {
      "author": "uttamg911 (https://sketchfab.com/uttamg911)",
      "license": "CC-BY-NC-SA-4.0 (http://creativecommons.org/licenses/by-nc-sa/4.0/)",
      "source": "https://sketchfab.com/3d-models/day-226-samosa-3b8eb0e93c244747b94b354f547cd975",
      "title": "Day 226: Samosa"
    },
    "generator": "Sketchfab-12.87.0",
    "version": "2.0"
  },
  "bufferViews": [
    {
      "buffer": 0,
      "byteLength": 600000,
      "name": "floatBufferViews",
      "target": 34963
    },
    {
      "buffer": 0,
      "byteLength": 642192,
      "byteOffset": 600000,
      "byteStride": 8,
      "name": "floatBufferViews",
      "target": 34962
    },
    {
      "buffer": 0,
      "byteLength": 642192,
      "byteOffset": 1242192,
      "byteStride": 12,
      "name": "floatBufferViews",
      "target": 34962
    }
  ],
  "buffers": [
    {
      "byteLength": 1884384,
      "uri": "scene.bin"
    }
  ],
  "extensionsUsed": [
    "KHR_materials_unlit"
  ],
  "images": [
    {
      "uri": "textures/material_0_baseColor.jpeg"
    }
  ],
  "materials": [
    {
      "extensions": {
        "KHR_materials_unlit": {}
      },
      "name": "material_0",
      "pbrMetallicRoughness": {
        "baseColorTexture": {
          "index": 0
        },
        "metallicFactor": 0.0
      }
    }
  ],
  "meshes": [
    {
      "name": "Object_0",
      "primitives": [
        {
          "attributes": {
            "NORMAL": 1,
            "POSITION": 0,
            "TEXCOORD_0": 2,
            "TEXCOORD_1": 3,
            "TEXCOORD_2": 4
          },
          "indices": 5,
          "material": 0,
          "mode": 4
        }
      ]
    }
  ],
  "nodes": [
    {
      "children": [
        1
      ],
      "matrix": [
        1.0,
        0.0,
        0.0,
        0.0,
        0.0,
        2.220446049250313e-16,
        -1.0,
        0.0,
        0.0,
        1.0,
        2.220446049250313e-16,
        0.0,
        0.0,
        0.0,
        0.0,
        1.0
      ],
      "name": "Sketchfab_model"
    },
    {
      "children": [
        2
      ],
      "name": "root"
    },
    {
      "children": [
        3
      ],
      "matrix": [
        1.0,
        0.0,
        0.0,
        0.0,
        0.0,
        2.220446049250313e-16,
        1.0,
        0.0,
        0.0,
        -1.0,
        2.220446049250313e-16,
        0.0,
        0.0,
        0.0,
        0.0,
        1.0
      ],
      "name": "GLTF_SceneRootNode"
    },
    {
      "children": [
        4
      ],
      "name": "_0"
    },
    {
      "mesh": 0,
      "name": "Object_4"
    }
  ],
  "samplers": [
    {
      "magFilter": 9729,
      "minFilter": 9987,
      "wrapS": 10497,
      "wrapT": 10497
    }
  ],
  "scene": 0,
  "scenes": [
    {
      "name": "Sketchfab_Scene",
      "nodes": [
        0
      ]
    }
  ],
  "textures": [
    {
      "sampler": 0,
      "source": 0
    }
  ]
}
